<!-- <svg xmlns="http://www.w3.org/2000/svg" xmlns:xlink="http://www.w3.org/1999/xlink" fill="#000000" height="800px" width="800px" version="1.1" id="Capa_1" viewBox="0 0 490.858 490.858" xml:space="preserve">
<g>
	<path d="M132.471,175.624c2.347,0,4.25-1.902,4.25-4.25c0-49,109.347-98.713,110.452-99.209c2.141-0.963,3.097-3.478,2.134-5.619   c-0.96-2.141-3.476-3.096-5.617-2.135c-4.715,2.118-115.468,52.494-115.468,106.963   C128.221,173.721,130.124,175.624,132.471,175.624z"/>
	<path d="M427.138,166.452h-7.393c-2.244-34.126-31.379-72.098-86.688-112.948C290.7,22.217,247.758,0.662,247.329,0.447   c-1.195-0.596-2.602-0.596-3.797,0c-0.429,0.215-43.372,21.771-85.73,53.056c-55.308,40.851-84.444,78.823-86.688,112.949H63.72   c-2.347,0-4.25,1.902-4.25,4.25v315.906c0,2.348,1.903,4.25,4.25,4.25c2.347,0,4.25-1.902,4.25-4.25v-15.576h25.332v15.576   c0,2.348,1.903,4.25,4.25,4.25s4.25-1.902,4.25-4.25V175.624h2.718c2.347,0,4.25-1.902,4.25-4.25   c0-57.963,120.385-118.613,136.661-126.543c16.275,7.93,136.659,68.58,136.659,126.543c0,2.348,1.902,4.25,4.25,4.25h2.717v310.984   c0,2.348,1.902,4.25,4.25,4.25c2.348,0,4.25-1.902,4.25-4.25v-15.576h25.332v15.576c0,2.348,1.902,4.25,4.25,4.25   c2.348,0,4.25-1.902,4.25-4.25V170.702C431.388,168.354,429.486,166.452,427.138,166.452z M397.556,201.698h25.332v242.834h-25.332   V201.698z M93.302,444.532H67.97V201.698h25.332V444.532z M67.97,462.532v-9.5h25.332v9.5H67.97z M247.232,36.264   c-1.143-0.533-2.461-0.533-3.604,0c-5.73,2.683-137.611,65.164-143.178,130.859h-2.899c-2.347,0-4.25,1.902-4.25,4.25v21.824H67.97   v-18.246h7.253c2.347,0,4.25-1.902,4.25-4.25c0-73.387,147.407-152.072,165.957-161.678   c18.551,9.602,165.956,88.265,165.956,161.678c0,2.348,1.902,4.25,4.25,4.25h7.252v18.246h-25.332v-21.824   c0-2.348-1.902-4.25-4.25-4.25h-2.898C384.842,101.428,252.963,38.947,247.232,36.264z M397.556,462.532v-9.5h25.332v9.5H397.556z"/>
	<path d="M202.398,455.659h-28.876c-2.347,0-4.25,1.902-4.25,4.25c0,2.348,1.903,4.25,4.25,4.25h28.876   c2.347,0,4.25-1.902,4.25-4.25C206.648,457.561,204.745,455.659,202.398,455.659z"/>
	<path d="M314.862,345.038c3.346-9.084,13.531-36.279,13.531-36.279c0.547-1.467,0.243-3.116-0.791-4.292   c-1.033-1.176-2.633-1.689-4.154-1.333l-24.145,5.617l-1.376-2.944c-0.851-1.817-2.859-2.795-4.808-2.341l-66.739,15.433   c-1.25,0.289-2.302,1.127-2.864,2.28c-0.562,1.153-0.572,2.498-0.029,3.66l10.085,21.576l-11.178,2.566   c0.097-5.789,0.086-15.92-0.781-26.504c-1.228-15.002-3.743-25.642-7.618-32.129c4.502-1.077,8.86-2.846,12.922-5.332   c10.146-6.209,17.268-15.997,20.052-27.563c3.53-14.672-0.744-30.295-11.137-41.188l-2.461-20.588   c-0.579-4.834-4.683-8.479-9.547-8.479c-0.381,0-0.767,0.022-1.148,0.068l-53.331,6.379c-5.268,0.63-9.04,5.429-8.409,10.695   l2.761,23.097c-1.428,2.921-2.556,5.993-3.32,9.17c-2.784,11.564-0.898,23.521,5.311,33.668c1.389,2.27,2.967,4.38,4.694,6.332   c-9.878,6.466-31.837,25.247-37.247,66.902c-2.584,19.898-3.879,48.752-0.614,65.078l0.163,0.817   c1.733,8.713,4.068,20.39,16.009,26.631c-4.562,1.736-8.969,4.168-12.499,7.587c-5.139,4.979-7.745,11.281-7.745,18.732v11.44   c0,1.129,0.449,2.211,1.248,3.008c0.797,0.796,1.876,1.242,3.002,1.242c0.002,0,0.005,0,0.008,0l122.372-0.222   c26.942,0,43.096-12.719,44.318-34.896c0.952-17.264-1.818-38.057-31.943-45.676c-1.293-0.327-2.62-0.643-3.972-0.963   c-8.753-2.077-17.748-4.23-24.746-11.262l34.529-7.997c8.372-1.923,13.622-10.3,11.703-18.674l-0.962-4.192l27.834-6.475   C314.179,347.031,314.485,346.061,314.862,345.038z M170.356,202.086l53.33-6.379c0.047-0.005,0.094-0.008,0.14-0.008   c0.564,0,1.04,0.425,1.107,0.988l2.143,17.927l-55.314,8.679l-0.412-3.447l17.666-2.392c2.326-0.316,3.956-2.456,3.641-4.782   c-0.314-2.326-2.456-3.948-4.782-3.642l-17.534,2.373l-0.965-8.071C169.303,202.719,169.742,202.16,170.356,202.086z    M168.641,238.598c0.544-2.263,1.309-4.462,2.269-6.567l59.343-9.311c8.008,8.784,11.247,21.137,8.454,32.744   c-4.65,19.318-24.146,31.254-43.467,26.6c-9.357-2.252-17.277-8.014-22.301-16.224C167.915,257.63,166.388,247.956,168.641,238.598   z M261.522,404.562c1.31,0.311,2.597,0.616,3.85,0.933c22.574,5.71,26.536,18.907,25.541,36.967   c-1.225,22.203-20.161,26.864-35.84,26.864l-118.122,0.214v-5.381h23.311c2.347,0,4.25-1.902,4.25-4.25   c0-2.348-1.903-4.25-4.25-4.25h-22.13c0.851-2.2,2.161-4.166,3.966-5.917c7.363-7.145,20.64-8.915,27.711-9.341   c0.119,0.001,0.23,0.007,0.35,0.007c1.514,0,3.099-0.044,4.746-0.133c37.783-2.058,44.941-0.89,48.381-0.328   c1.053,0.172,2.048,0.334,3.373,0.334c2.347,0,4.25-1.902,4.25-4.25c0-2.348-1.903-4.25-4.25-4.25c-0.61,0-1.055-0.068-2.004-0.224   c-4.016-0.655-11.489-1.871-50.034,0.221c-0.635-0.017-2.617-0.039-5.427,0.133c-23.4-0.219-25.725-11.871-28.171-24.163   l-0.165-0.825c-2.939-14.698-1.869-42.476,0.708-62.317c5.42-41.735,28.435-58.036,35.278-62.015   c4.815,3.635,10.365,6.283,16.407,7.737c3.486,0.84,7.008,1.254,10.505,1.254c0.04,0,0.079-0.004,0.119-0.004   c5.138,2.645,8.381,17.58,9.587,35.34l-4.753-20.712c-1.635-7.125-7.876-12.102-15.179-12.102c-1.171,0-2.347,0.134-3.497,0.397   l-7.364,1.691c-4.057,0.931-7.509,3.386-9.719,6.913c-2.21,3.527-2.915,7.704-1.983,11.76l15.215,66.31   c1.634,7.124,7.875,12.099,15.175,12.099h0.001c1.172,0,2.35-0.134,3.507-0.399l24.487-5.671   C238.47,399.09,251.182,402.108,261.522,404.562z M271.357,368.75l-68.402,15.843c-0.527,0.121-1.063,0.182-1.596,0.182   c-3.314,0-6.148-2.261-6.891-5.499l-15.215-66.311c-0.423-1.844-0.104-3.742,0.901-5.345c0.33-0.526,0.726-0.994,1.167-1.408   l7.023,34.388c0.411,2.013,2.182,3.4,4.16,3.4c0.282,0,0.568-0.028,0.855-0.087c2.3-0.47,3.783-2.715,3.314-5.015l-7.257-35.532   l2.52-0.579c0.526-0.121,1.063-0.183,1.595-0.183c3.316,0,6.15,2.263,6.894,5.502l10.959,47.762   c0.253,1.099,0.931,2.053,1.886,2.651c0.955,0.598,2.109,0.794,3.207,0.541l50.03-11.483c0.526-0.121,1.063-0.182,1.595-0.182   c3.315,0,6.15,2.262,6.895,5.5l1.69,7.363C277.557,364.066,275.171,367.874,271.357,368.75z M281.235,346.084   c-2.789-4.396-7.664-7.189-13.134-7.189c-1.17,0-2.347,0.133-3.496,0.396l-22.559,5.178l-8.635-18.473l58.271-13.475l1.365,2.921   c0.002,0.004,0.004,0.007,0.005,0.011l11.755,25.147L281.235,346.084z M310.439,332.572l-7.456-15.95l14.679-3.415L310.439,332.572   z"/>
	<path d="M375.208,185.866c-2.348,0-4.25,1.902-4.25,4.25v132c0,2.348,1.902,4.25,4.25,4.25c2.348,0,4.25-1.902,4.25-4.25v-132   C379.458,187.768,377.555,185.866,375.208,185.866z"/>
	<path d="M375.208,343.358c-2.348,0-4.25,1.902-4.25,4.25v35.524c0,2.348,1.902,4.25,4.25,4.25c2.348,0,4.25-1.902,4.25-4.25   v-35.524C379.458,345.26,377.555,343.358,375.208,343.358z"/>
</g>
</svg>
<svg xmlns="http://www.w3.org/2000/svg" xmlns:xlink="http://www.w3.org/1999/xlink" fill="#000000" height="800px" width="800px" version="1.1" id="Capa_2" viewBox="0 0 484.228 484.228" xml:space="preserve">
<g>
	<path d="M484.06,210.989L438.305,52.856c-0.328-1.133-1.112-2.079-2.164-2.611c-1.054-0.533-2.278-0.605-3.385-0.197l-12.411,4.561   l-1.982-6.582c-0.339-1.127-1.131-2.063-2.186-2.584c-1.055-0.522-2.279-0.583-3.381-0.168   c-29.582,11.134-44.034,14.763-107.786,22.14c-40.168,4.647-56.44,21.963-62.954,33.842c-6.469-11.884-22.678-29.195-62.839-33.842   c-63.753-7.377-78.205-11.006-107.787-22.14c-1.101-0.415-2.326-0.354-3.381,0.168c-1.055,0.521-1.847,1.457-2.186,2.584   l-1.976,6.562l-12.423-4.543c-1.105-0.403-2.332-0.331-3.382,0.201c-1.051,0.533-1.833,1.478-2.161,2.609L0.168,210.989   c-0.638,2.207,0.593,4.521,2.779,5.226l141.114,45.496l-59.117,47.54c-1.004,0.807-1.587,2.025-1.587,3.312v32.49   c0,1.709,1.023,3.252,2.599,3.916c1.574,0.664,3.394,0.32,4.617-0.872l26.274-25.606c4.096-3.976,10.665-3.88,14.64,0.216   l5.087,5.24c1.926,1.983,2.964,4.599,2.923,7.364c-0.041,2.765-1.156,5.348-3.15,7.284l-51.71,50.528   c-0.818,0.799-1.279,1.896-1.279,3.04v38.814c0,1.698,1.011,3.233,2.569,3.904c0.542,0.233,1.113,0.346,1.68,0.346   c1.066,0,2.117-0.401,2.922-1.163l151.508-143.381l151.74,143.383c0.805,0.761,1.855,1.161,2.92,1.161   c0.567,0,1.14-0.114,1.681-0.347c1.559-0.671,2.568-2.206,2.568-3.903v-38.814c0-1.144-0.461-2.24-1.279-3.04l-51.722-50.538   c-1.983-1.926-3.099-4.509-3.14-7.274c-0.041-2.765,0.997-5.38,2.923-7.364l5.087-5.24c3.976-4.096,10.542-4.193,14.634-0.223   l26.281,25.613c1.224,1.192,3.045,1.536,4.617,0.872c1.575-0.664,2.599-2.207,2.599-3.916v-32.49c0-1.286-0.582-2.503-1.583-3.309   l-59.081-47.609l140.999-45.429C483.467,215.51,484.697,213.196,484.06,210.989z M389.745,110.873h38.663l2.408,8h-6.571   c-2.348,0-4.25,1.903-4.25,4.25c0,2.347,1.902,4.25,4.25,4.25h9.131l12.796,42.5h-42.927c-2.348,0-4.25,1.903-4.25,4.25   c0,2.347,1.902,4.25,4.25,4.25h45.485l4.066,13.506c-21.982,7.912-73.793,23.604-147.522,27.514   c-32.093,1.702-48.683,13.718-56.95,23.5c-0.729,0.862-1.407,1.723-2.04,2.577v-85.096h63.461c2.348,0,4.25-1.903,4.25-4.25   c0-2.347-1.902-4.25-4.25-4.25h-63.461v-15.438c0.561-3.152,7.102-31.816,59.703-37.902c61.527-7.119,83.698-13.038,111.668-23.373   l8.193,27.212h-36.104c-2.348,0-4.25,1.903-4.25,4.25C385.495,108.97,387.398,110.873,389.745,110.873z M33.24,185.873h26.505   c2.348,0,4.25-1.903,4.25-4.25c0-2.347-1.902-4.25-4.25-4.25H35.799l7.376-24.5h62.07c2.348,0,4.25-1.903,4.25-4.25   c0-2.347-1.902-4.25-4.25-4.25H45.735l4.968-16.5h23.043c2.348,0,4.25-1.903,4.25-4.25c0-2.347-1.902-4.25-4.25-4.25H53.261   l13.492-44.813c29.514,10.936,51.988,17.089,111.488,23.974c52.74,6.103,59.033,34.906,59.543,37.888v48.952h-15.039   c-2.348,0-4.25,1.903-4.25,4.25c0,2.347,1.902,4.25,4.25,4.25h15.039v5.5h-34.039c-2.348,0-4.25,1.903-4.25,4.25   c0,2.347,1.902,4.25,4.25,4.25h34.039v37.507c-0.609-0.823-1.256-1.65-1.954-2.48c-8.23-9.784-24.779-21.805-56.876-23.507   c-73.731-3.91-125.541-19.602-147.522-27.514L33.24,185.873z M305.987,75.857c61.594-7.127,77.914-10.836,105.544-21.039   l3.669,12.187c-28.124,10.427-48.897,15.992-110.19,23.084c-33.354,3.859-50.23,16.454-58.727,27.417v-3.748   C246.851,110.584,253.41,81.941,305.987,75.857z M72.697,54.819c27.63,10.203,43.95,13.912,105.545,21.039   c52.74,6.102,59.033,34.906,59.543,37.888v3.671c-8.477-10.944-25.307-23.479-58.566-27.327   c-59.225-6.853-80.292-12.641-110.01-23.685L72.697,54.819z M52.822,59.593l8.611,3.149L22.139,193.26   c-0.645,2.141,0.479,4.415,2.572,5.203c19.769,7.441,74.328,25.204,153.794,29.418c52.999,2.811,58.835,34.556,59.279,37.671   v17.445L9.48,209.39L52.822,59.593z M91.858,397.951l50.42-49.268c3.613-3.507,5.644-8.211,5.719-13.246   c0.075-5.035-1.816-9.798-5.322-13.411l-5.087-5.24c-7.239-7.459-19.198-7.637-26.665-0.389l-19.064,18.579v-20.378l61.886-49.766   l17.631,5.685l-19.632,19.598c-1.661,1.658-1.663,4.349-0.005,6.01c0.83,0.831,1.919,1.247,3.008,1.247   c1.086,0,2.173-0.414,3.003-1.242l22.721-22.682l23.368,7.534l-42.849,42.886c-1.658,1.661-1.657,4.352,0.003,6.01   c0.83,0.829,1.917,1.244,3.004,1.244c1.088,0,2.177-0.415,3.007-1.246l45.923-45.964l20.979,6.764L91.858,425.103V397.951z    M392.445,314.595v20.381l-19.071-18.586c-7.459-7.24-19.418-7.063-26.659,0.395l-5.087,5.24   c-3.507,3.613-5.398,8.376-5.322,13.411c0.075,5.035,2.106,9.739,5.708,13.236l50.432,49.278v27.162L250.173,290.676l26.105-8.411   l26.712,26.712c0.829,0.83,1.917,1.245,3.005,1.245s2.176-0.415,3.005-1.245c1.66-1.66,1.66-4.351,0-6.011l-23.63-23.63   l45.233-14.574L392.445,314.595z M246.284,282.998v-17.436c0.469-3.178,6.484-34.874,59.44-37.682   c79.464-4.214,134.024-21.977,153.794-29.418c2.093-0.788,3.217-3.062,2.572-5.203L422.8,62.762l8.607-3.163l43.341,149.79   L246.284,282.998z"/>
	<path d="M148.245,119.373h-33.5c-2.348,0-4.25,1.903-4.25,4.25c0,2.347,1.902,4.25,4.25,4.25h33.5c2.348,0,4.25-1.903,4.25-4.25   C152.495,121.276,150.593,119.373,148.245,119.373z"/>
</g>
</svg> -->

<svg aria-hidden="true" style="position: absolute; width: 0; height: 0;" version="1.1" xmlns="http://www.w3.org/2000/svg" xmlns:xlink="http://www.w3.org/1999/xlink">
<defs>
<symbol id="icon-alert-circle" viewBox="0 0 24 24">
<path d="M23 12c0-3.037-1.232-5.789-3.222-7.778s-4.741-3.222-7.778-3.222-5.789 1.232-7.778 3.222-3.222 4.741-3.222 7.778 1.232 5.789 3.222 7.778 4.741 3.222 7.778 3.222 5.789-1.232 7.778-3.222 3.222-4.741 3.222-7.778zM21 12c0 2.486-1.006 4.734-2.636 6.364s-3.878 2.636-6.364 2.636-4.734-1.006-6.364-2.636-2.636-3.878-2.636-6.364 1.006-4.734 2.636-6.364 3.878-2.636 6.364-2.636 4.734 1.006 6.364 2.636 2.636 3.878 2.636 6.364zM11 8v4c0 0.552 0.448 1 1 1s1-0.448 1-1v-4c0-0.552-0.448-1-1-1s-1 0.448-1 1zM12 17c0.552 0 1-0.448 1-1s-0.448-1-1-1-1 0.448-1 1 0.448 1 1 1z"></path>
</symbol>
<symbol id="icon-alert-triangle" viewBox="0 0 24 24">
<path d="M11.148 4.374c0.073-0.123 0.185-0.242 0.334-0.332 0.236-0.143 0.506-0.178 0.756-0.116s0.474 0.216 0.614 0.448l8.466 14.133c0.070 0.12 0.119 0.268 0.128 0.434-0.015 0.368-0.119 0.591-0.283 0.759-0.18 0.184-0.427 0.298-0.693 0.301l-16.937-0.001c-0.152-0.001-0.321-0.041-0.481-0.134-0.239-0.138-0.399-0.359-0.466-0.607s-0.038-0.519 0.092-0.745zM9.432 3.346l-8.47 14.14c-0.422 0.731-0.506 1.55-0.308 2.29s0.68 1.408 1.398 1.822c0.464 0.268 0.976 0.4 1.475 0.402h16.943c0.839-0.009 1.587-0.354 2.123-0.902s0.864-1.303 0.855-2.131c-0.006-0.536-0.153-1.044-0.406-1.474l-8.474-14.147c-0.432-0.713-1.11-1.181-1.854-1.363s-1.561-0.081-2.269 0.349c-0.429 0.26-0.775 0.615-1.012 1.014zM11 9v4c0 0.552 0.448 1 1 1s1-0.448 1-1v-4c0-0.552-0.448-1-1-1s-1 0.448-1 1zM12 18c0.552 0 1-0.448 1-1s-0.448-1-1-1-1 0.448-1 1 0.448 1 1 1z"></path>
</symbol>
<symbol id="icon-arrow-left" viewBox="0 0 24 24">
<path d="M12.707 18.293l-5.293-5.293h11.586c0.552 0 1-0.448 1-1s-0.448-1-1-1h-11.586l5.293-5.293c0.391-0.391 0.391-1.024 0-1.414s-1.024-0.391-1.414 0l-7 7c-0.096 0.096-0.168 0.206-0.217 0.324-0.051 0.122-0.076 0.253-0.076 0.383 0 0.256 0.098 0.512 0.293 0.707l7 7c0.391 0.391 1.024 0.391 1.414 0s0.391-1.024 0-1.414z"></path>
</symbol>
<symbol id="icon-arrow-right" viewBox="0 0 24 24">
<path d="M11.293 5.707l5.293 5.293h-11.586c-0.552 0-1 0.448-1 1s0.448 1 1 1h11.586l-5.293 5.293c-0.391 0.391-0.391 1.024 0 1.414s1.024 0.391 1.414 0l7-7c0.092-0.092 0.166-0.202 0.217-0.324 0.101-0.245 0.101-0.521 0-0.766-0.049-0.118-0.121-0.228-0.217-0.324l-7-7c-0.391-0.391-1.024-0.391-1.414 0s-0.391 1.024 0 1.414z"></path>
</symbol>
<symbol id="icon-arrow-down" viewBox="0 0 24 24">
<title>arrow-down</title>
<path d="M19.7 11.3c-0.4-0.4-1-0.4-1.4 0l-5.3 5.3v-11.6c0-0.6-0.4-1-1-1s-1 0.4-1 1v11.6l-5.3-5.3c-0.4-0.4-1-0.4-1.4 0s-0.4 1 0 1.4l7 7c0.1 0.1 0.2 0.2 0.3 0.2 0.1 0.1 0.3 0.1 0.4 0.1s0.3 0 0.4-0.1c0.1-0.1 0.2-0.1 0.3-0.2l7-7c0.4-0.4 0.4-1 0-1.4z"></path>
</symbol>
<symbol id="icon-bookmark" viewBox="0 0 24 24">
<path d="M18.419 21.814c0.161 0.116 0.363 0.186 0.581 0.186 0.552 0 1-0.448 1-1v-16c0-0.828-0.337-1.58-0.879-2.121s-1.293-0.879-2.121-0.879h-10c-0.828 0-1.58 0.337-2.121 0.879s-0.879 1.293-0.879 2.121v16c-0.001 0.199 0.060 0.404 0.186 0.581 0.321 0.449 0.946 0.554 1.395 0.232l6.419-4.584zM18 19.057l-5.419-3.871c-0.355-0.254-0.819-0.242-1.162 0l-5.419 3.871v-14.057c0-0.276 0.111-0.525 0.293-0.707s0.431-0.293 0.707-0.293h10c0.276 0 0.525 0.111 0.707 0.293s0.293 0.431 0.293 0.707z"></path>
</symbol>

<symbol id="icon-bookmark-fill" viewBox="0 0 24 24">
<polygon points="18.419 21.814, 19.000 22.000, 20.000 21.000, 20.000 5.000, 19.121 2.879, 17.000 2.000, 7.000 2.000, 4.879 2.879, 4.000 5.000, 4.000 21.000, 4.186 21.581, 5.581 21.813, 12.000 17.229" />
</symbol>

<symbol id="icon-check" viewBox="0 0 24 24">
<path d="M19.293 5.293l-10.293 10.293-4.293-4.293c-0.391-0.391-1.024-0.391-1.414 0s-0.391 1.024 0 1.414l5 5c0.391 0.391 1.024 0.391 1.414 0l11-11c0.391-0.391 0.391-1.024 0-1.414s-1.024-0.391-1.414 0z"></path>
</symbol>
<symbol id="icon-clock" viewBox="0 0 24 24">
<path d="M23 12c0-3.037-1.232-5.789-3.222-7.778s-4.741-3.222-7.778-3.222-5.789 1.232-7.778 3.222-3.222 4.741-3.222 7.778 1.232 5.789 3.222 7.778 4.741 3.222 7.778 3.222 5.789-1.232 7.778-3.222 3.222-4.741 3.222-7.778zM21 12c0 2.486-1.006 4.734-2.636 6.364s-3.878 2.636-6.364 2.636-4.734-1.006-6.364-2.636-2.636-3.878-2.636-6.364 1.006-4.734 2.636-6.364 3.878-2.636 6.364-2.636 4.734 1.006 6.364 2.636 2.636 3.878 2.636 6.364zM11 6v6c0 0.389 0.222 0.727 0.553 0.894l4 2c0.494 0.247 1.095 0.047 1.342-0.447s0.047-1.095-0.447-1.342l-3.448-1.723v-5.382c0-0.552-0.448-1-1-1s-1 0.448-1 1z"></path>
</symbol>
<symbol id="icon-edit" viewBox="0 0 24 24">
<path d="M11 3h-7c-0.828 0-1.58 0.337-2.121 0.879s-0.879 1.293-0.879 2.121v14c0 0.828 0.337 1.58 0.879 2.121s1.293 0.879 2.121 0.879h14c0.828 0 1.58-0.337 2.121-0.879s0.879-1.293 0.879-2.121v-7c0-0.552-0.448-1-1-1s-1 0.448-1 1v7c0 0.276-0.111 0.525-0.293 0.707s-0.431 0.293-0.707 0.293h-14c-0.276 0-0.525-0.111-0.707-0.293s-0.293-0.431-0.293-0.707v-14c0-0.276 0.111-0.525 0.293-0.707s0.431-0.293 0.707-0.293h7c0.552 0 1-0.448 1-1s-0.448-1-1-1zM17.793 1.793l-9.5 9.5c-0.122 0.121-0.217 0.28-0.263 0.465l-1 4c-0.039 0.15-0.042 0.318 0 0.485 0.134 0.536 0.677 0.862 1.213 0.728l4-1c0.167-0.041 0.33-0.129 0.465-0.263l9.5-9.5c0.609-0.609 0.914-1.41 0.914-2.207s-0.305-1.598-0.914-2.207-1.411-0.915-2.208-0.915-1.598 0.305-2.207 0.914zM19.207 3.207c0.219-0.219 0.504-0.328 0.793-0.328s0.574 0.109 0.793 0.328 0.328 0.504 0.328 0.793-0.109 0.574-0.328 0.793l-9.304 9.304-2.114 0.529 0.529-2.114z"></path>
</symbol>
<symbol id="icon-loader" viewBox="0 0 24 24">
<path d="M11 2v4c0 0.552 0.448 1 1 1s1-0.448 1-1v-4c0-0.552-0.448-1-1-1s-1 0.448-1 1zM11 18v4c0 0.552 0.448 1 1 1s1-0.448 1-1v-4c0-0.552-0.448-1-1-1s-1 0.448-1 1zM4.223 5.637l2.83 2.83c0.391 0.391 1.024 0.391 1.414 0s0.391-1.024 0-1.414l-2.83-2.83c-0.391-0.391-1.024-0.391-1.414 0s-0.391 1.024 0 1.414zM15.533 16.947l2.83 2.83c0.391 0.391 1.024 0.391 1.414 0s0.391-1.024 0-1.414l-2.83-2.83c-0.391-0.391-1.024-0.391-1.414 0s-0.391 1.024 0 1.414zM2 13h4c0.552 0 1-0.448 1-1s-0.448-1-1-1h-4c-0.552 0-1 0.448-1 1s0.448 1 1 1zM18 13h4c0.552 0 1-0.448 1-1s-0.448-1-1-1h-4c-0.552 0-1 0.448-1 1s0.448 1 1 1zM5.637 19.777l2.83-2.83c0.391-0.391 0.391-1.024 0-1.414s-1.024-0.391-1.414 0l-2.83 2.83c-0.391 0.391-0.391 1.024 0 1.414s1.024 0.391 1.414 0zM16.947 8.467l2.83-2.83c0.391-0.391 0.391-1.024 0-1.414s-1.024-0.391-1.414 0l-2.83 2.83c-0.391 0.391-0.391 1.024 0 1.414s1.024 0.391 1.414 0z"></path>
</symbol>
<symbol id="icon-minus-circle" viewBox="0 0 24 24">
<path d="M23 12c0-3.037-1.232-5.789-3.222-7.778s-4.741-3.222-7.778-3.222-5.789 1.232-7.778 3.222-3.222 4.741-3.222 7.778 1.232 5.789 3.222 7.778 4.741 3.222 7.778 3.222 5.789-1.232 7.778-3.222 3.222-4.741 3.222-7.778zM21 12c0 2.486-1.006 4.734-2.636 6.364s-3.878 2.636-6.364 2.636-4.734-1.006-6.364-2.636-2.636-3.878-2.636-6.364 1.006-4.734 2.636-6.364 3.878-2.636 6.364-2.636 4.734 1.006 6.364 2.636 2.636 3.878 2.636 6.364zM8 13h8c0.552 0 1-0.448 1-1s-0.448-1-1-1h-8c-0.552 0-1 0.448-1 1s0.448 1 1 1z"></path>
</symbol>
<symbol id="icon-plus-circle" viewBox="0 0 24 24">
<path d="M23 12c0-3.037-1.232-5.789-3.222-7.778s-4.741-3.222-7.778-3.222-5.789 1.232-7.778 3.222-3.222 4.741-3.222 7.778 1.232 5.789 3.222 7.778 4.741 3.222 7.778 3.222 5.789-1.232 7.778-3.222 3.222-4.741 3.222-7.778zM21 12c0 2.486-1.006 4.734-2.636 6.364s-3.878 2.636-6.364 2.636-4.734-1.006-6.364-2.636-2.636-3.878-2.636-6.364 1.006-4.734 2.636-6.364 3.878-2.636 6.364-2.636 4.734 1.006 6.364 2.636 2.636 3.878 2.636 6.364zM8 13h3v3c0 0.552 0.448 1 1 1s1-0.448 1-1v-3h3c0.552 0 1-0.448 1-1s-0.448-1-1-1h-3v-3c0-0.552-0.448-1-1-1s-1 0.448-1 1v3h-3c-0.552 0-1 0.448-1 1s0.448 1 1 1z"></path>
</symbol>
<symbol id="icon-search" viewBox="0 0 24 24">
<path d="M16.041 15.856c-0.034 0.026-0.067 0.055-0.099 0.087s-0.060 0.064-0.087 0.099c-1.258 1.213-2.969 1.958-4.855 1.958-1.933 0-3.682-0.782-4.95-2.050s-2.050-3.017-2.050-4.95 0.782-3.682 2.050-4.95 3.017-2.050 4.95-2.050 3.682 0.782 4.95 2.050 2.050 3.017 2.050 4.95c0 1.886-0.745 3.597-1.959 4.856zM21.707 20.293l-3.675-3.675c1.231-1.54 1.968-3.493 1.968-5.618 0-2.485-1.008-4.736-2.636-6.364s-3.879-2.636-6.364-2.636-4.736 1.008-6.364 2.636-2.636 3.879-2.636 6.364 1.008 4.736 2.636 6.364 3.879 2.636 6.364 2.636c2.125 0 4.078-0.737 5.618-1.968l3.675 3.675c0.391 0.391 1.024 0.391 1.414 0s0.391-1.024 0-1.414z"></path>
</symbol>
<symbol id="icon-send" viewBox="0 0 24 24">
<path d="M22.963 2.269c0.043-0.151 0.050-0.314 0.015-0.476-0.024-0.113-0.068-0.224-0.131-0.325-0.064-0.102-0.145-0.19-0.238-0.262-0.117-0.090-0.249-0.15-0.386-0.181s-0.282-0.034-0.426-0.004c-0.042 0.009-0.085 0.021-0.126 0.035l-0.021 0.007-19.98 6.993c-0.252 0.088-0.467 0.276-0.584 0.538-0.224 0.505 0.003 1.096 0.508 1.32l8.649 3.844 3.844 8.649c0.108 0.243 0.313 0.443 0.583 0.538 0.521 0.182 1.092-0.092 1.274-0.614l6.993-19.979c0.010-0.027 0.019-0.054 0.027-0.082zM10.779 11.807l-6.068-2.696 13.483-4.72zM19.609 5.806l-4.72 13.483-2.696-6.068z"></path>
</symbol>
<symbol id="icon-smile" viewBox="0 0 24 24">
<path d="M23 12c0-3.037-1.232-5.789-3.222-7.778s-4.741-3.222-7.778-3.222-5.789 1.232-7.778 3.222-3.222 4.741-3.222 7.778 1.232 5.789 3.222 7.778 4.741 3.222 7.778 3.222 5.789-1.232 7.778-3.222 3.222-4.741 3.222-7.778zM21 12c0 2.486-1.006 4.734-2.636 6.364s-3.878 2.636-6.364 2.636-4.734-1.006-6.364-2.636-2.636-3.878-2.636-6.364 1.006-4.734 2.636-6.364 3.878-2.636 6.364-2.636 4.734 1.006 6.364 2.636 2.636 3.878 2.636 6.364zM7.2 14.6c0 0 0.131 0.173 0.331 0.383 0.145 0.153 0.338 0.341 0.577 0.54 0.337 0.281 0.772 0.59 1.297 0.853 0.705 0.352 1.579 0.624 2.595 0.624s1.89-0.272 2.595-0.624c0.525-0.263 0.96-0.572 1.297-0.853 0.239-0.199 0.432-0.387 0.577-0.54 0.2-0.21 0.331-0.383 0.331-0.383 0.331-0.442 0.242-1.069-0.2-1.4s-1.069-0.242-1.4 0.2c-0.041 0.050-0.181 0.206-0.181 0.206-0.1 0.105-0.237 0.239-0.408 0.382-0.243 0.203-0.549 0.419-0.91 0.6-0.48 0.239-1.050 0.412-1.701 0.412s-1.221-0.173-1.701-0.413c-0.36-0.18-0.667-0.397-0.91-0.6-0.171-0.143-0.308-0.277-0.408-0.382-0.14-0.155-0.181-0.205-0.181-0.205-0.331-0.442-0.958-0.531-1.4-0.2s-0.531 0.958-0.2 1.4zM9 10c0.552 0 1-0.448 1-1s-0.448-1-1-1-1 0.448-1 1 0.448 1 1 1zM15 10c0.552 0 1-0.448 1-1s-0.448-1-1-1-1 0.448-1 1 0.448 1 1 1z"></path>
</symbol>
<symbol id="icon-user" viewBox="0 0 24 24">
<path d="M21 21v-2c0-1.38-0.561-2.632-1.464-3.536s-2.156-1.464-3.536-1.464h-8c-1.38 0-2.632 0.561-3.536 1.464s-1.464 2.156-1.464 3.536v2c0 0.552 0.448 1 1 1s1-0.448 1-1v-2c0-0.829 0.335-1.577 0.879-2.121s1.292-0.879 2.121-0.879h8c0.829 0 1.577 0.335 2.121 0.879s0.879 1.292 0.879 2.121v2c0 0.552 0.448 1 1 1s1-0.448 1-1zM17 7c0-1.38-0.561-2.632-1.464-3.536s-2.156-1.464-3.536-1.464-2.632 0.561-3.536 1.464-1.464 2.156-1.464 3.536 0.561 2.632 1.464 3.536 2.156 1.464 3.536 1.464 2.632-0.561 3.536-1.464 1.464-2.156 1.464-3.536zM15 7c0 0.829-0.335 1.577-0.879 2.121s-1.292 0.879-2.121 0.879-1.577-0.335-2.121-0.879-0.879-1.292-0.879-2.121 0.335-1.577 0.879-2.121 1.292-0.879 2.121-0.879 1.577 0.335 2.121 0.879 0.879 1.292 0.879 2.121z"></path>
</symbol>
<symbol id="icon-upload-cloud" viewBox="0 0 24 24">
<path d="M11 14.414v6.586c0 0.552 0.448 1 1 1s1-0.448 1-1v-6.586l2.293 2.293c0.391 0.391 1.024 0.391 1.414 0s0.391-1.024 0-1.414l-4-4c-0.092-0.092-0.202-0.166-0.324-0.217s-0.253-0.076-0.383-0.076c-0.256 0-0.512 0.098-0.707 0.293l-4 4c-0.391 0.391-0.391 1.024 0 1.414s1.024 0.391 1.414 0zM20.869 19.268c1.454-0.793 2.451-2.102 2.884-3.574s0.305-3.112-0.488-4.566c-0.679-1.245-1.737-2.155-2.959-2.663-0.724-0.301-1.505-0.46-2.299-0.465h-0.527c-0.725-2.057-2.144-3.708-3.917-4.752-1.983-1.168-4.415-1.581-6.821-0.959s-4.333 2.162-5.502 4.145-1.581 4.415-0.959 6.821c0.372 1.437 1.073 2.709 1.975 3.713 0.369 0.411 1.002 0.444 1.412 0.075s0.444-1.002 0.075-1.412c-0.688-0.765-1.235-1.75-1.526-2.877-0.484-1.872-0.164-3.761 0.746-5.305s2.407-2.74 4.279-3.224 3.761-0.164 5.305 0.746 2.74 2.407 3.224 4.279c0.116 0.435 0.506 0.75 0.969 0.75h1.253c0.536 0.004 1.061 0.111 1.545 0.312 0.815 0.339 1.517 0.943 1.97 1.773 0.529 0.97 0.615 2.061 0.325 3.044s-0.953 1.854-1.923 2.382c-0.485 0.264-0.664 0.872-0.399 1.357s0.872 0.664 1.357 0.399z"></path>
</symbol>
<symbol id="icon-users" viewBox="0 0 24 24">
<path d="M18 21v-2c0-1.38-0.561-2.632-1.464-3.536s-2.156-1.464-3.536-1.464h-8c-1.38 0-2.632 0.561-3.536 1.464s-1.464 2.156-1.464 3.536v2c0 0.552 0.448 1 1 1s1-0.448 1-1v-2c0-0.829 0.335-1.577 0.879-2.121s1.292-0.879 2.121-0.879h8c0.829 0 1.577 0.335 2.121 0.879s0.879 1.292 0.879 2.121v2c0 0.552 0.448 1 1 1s1-0.448 1-1zM14 7c0-1.38-0.561-2.632-1.464-3.536s-2.156-1.464-3.536-1.464-2.632 0.561-3.536 1.464-1.464 2.156-1.464 3.536 0.561 2.632 1.464 3.536 2.156 1.464 3.536 1.464 2.632-0.561 3.536-1.464 1.464-2.156 1.464-3.536zM12 7c0 0.829-0.335 1.577-0.879 2.121s-1.292 0.879-2.121 0.879-1.577-0.335-2.121-0.879-0.879-1.292-0.879-2.121 0.335-1.577 0.879-2.121 1.292-0.879 2.121-0.879 1.577 0.335 2.121 0.879 0.879 1.292 0.879 2.121zM24 21v-2c-0.001-1.245-0.457-2.385-1.215-3.261-0.652-0.753-1.528-1.311-2.529-1.576-0.534-0.141-1.081 0.177-1.222 0.711s0.177 1.081 0.711 1.222c0.607 0.161 1.136 0.498 1.528 0.952 0.454 0.526 0.726 1.206 0.727 1.952v2c0 0.552 0.448 1 1 1s1-0.448 1-1zM15.752 4.099c0.803 0.206 1.445 0.715 1.837 1.377s0.531 1.47 0.325 2.273c-0.176 0.688-0.575 1.256-1.105 1.652-0.314 0.235-0.675 0.409-1.063 0.511-0.534 0.14-0.854 0.687-0.713 1.221s0.687 0.854 1.221 0.713c0.637-0.167 1.232-0.455 1.752-0.844 0.884-0.66 1.552-1.613 1.845-2.758 0.342-1.337 0.11-2.689-0.542-3.788s-1.725-1.953-3.062-2.296c-0.535-0.137-1.080 0.186-1.217 0.721s0.186 1.080 0.721 1.217z"></path>
</symbol>
<symbol id="icon-shopping-cart" viewBox="0 0 24 24">
<title>shopping-cart</title>
<path d="M11 21c0 1.105-0.895 2-2 2s-2-0.895-2-2c0-1.105 0.895-2 2-2s2 0.895 2 2z"></path>
<path d="M22 21c0 1.105-0.895 2-2 2s-2-0.895-2-2c0-1.105 0.895-2 2-2s2 0.895 2 2z"></path>
<path d="M23.8 5.4c-0.2-0.3-0.5-0.4-0.8-0.4h-16.2l-0.8-4.2c-0.1-0.5-0.5-0.8-1-0.8h-4c-0.6 0-1 0.4-1 1s0.4 1 1 1h3.2l0.8 4.2c0 0 0 0.1 0 0.1l1.7 8.3c0.3 1.4 1.5 2.4 2.9 2.4 0 0 0 0 0.1 0h9.7c1.5 0 2.7-1 3-2.4l1.6-8.4c0-0.3 0-0.6-0.2-0.8zM20.4 14.2c-0.1 0.5-0.5 0.8-1 0.8h-9.7c-0.5 0-0.9-0.3-1-0.8l-1.5-7.2h14.6l-1.4 7.2z"></path>
</symbol>
<symbol id="icon-sidebar" viewBox="0 0 24 24">
<title>sidebar</title>
<path d="M19 2h-14c-1.7 0-3 1.3-3 3v14c0 1.7 1.3 3 3 3h14c1.7 0 3-1.3 3-3v-14c0-1.7-1.3-3-3-3zM4 19v-14c0-0.6 0.4-1 1-1h3v16h-3c-0.6 0-1-0.4-1-1zM20 19c0 0.6-0.4 1-1 1h-9v-16h9c0.6 0 1 0.4 1 1v14z"></path>
</symbol>
</defs>
</svg>